# Blender v3.1.2 OBJ File: ''
# www.blender.org
mtllib boneLow.mtl
o BoneA
v 0.162786 0.220442 -0.299599
v 0.017488 0.203618 -0.368569
v 0.093744 0.065640 -0.356523
v 0.239578 0.123177 -0.284098
v -0.247889 -0.150938 0.329991
v -0.027535 -0.112319 0.118772
v -0.043864 -0.111632 0.411442
v -0.081655 -0.229988 0.322467
vt 0.301033 0.226525
vt 0.289409 0.217421
vt 0.286221 0.245341
vt 0.295170 0.262340
vt 0.333929 0.328949
vt 0.334814 0.364107
vt 0.324963 0.364791
vt 0.323018 0.328207
vt 0.303377 0.329070
vt 0.313137 0.328481
vt 0.304213 0.364346
vt 0.317240 0.365474
vt 0.375976 0.260741
vt 0.376387 0.280441
vt 0.388662 0.280794
vt 0.287840 0.262367
vt 0.300435 0.245268
vt 0.300175 0.280461
vt 0.287840 0.250883
vt 0.291794 0.218622
vt 0.376632 0.279823
vt 0.390385 0.279642
vt 0.378750 0.260741
vn 0.0258 -0.5773 -0.8161
vn -0.3964 0.6728 -0.6247
vn -0.3133 -0.8983 -0.3082
vn 0.9606 0.2023 -0.1904
vn 0.2898 -0.9271 -0.2377
vn -0.9438 -0.1208 0.3078
vn 0.4042 0.2019 0.8921
vn 0.2287 -0.9618 0.1507
usemtl Material_#219
s 1
f 3/1/1 2/2/2 1/3/3
f 3/1/1 1/3/3 4/4/4
f 3/5/1 6/6/5 5/7/6
f 2/8/2 3/5/1 5/7/6
f 3/9/1 4/10/4 6/11/5
f 7/12/7 6/11/5 4/10/4
f 4/13/4 1/14/3 2/15/2
f 7/16/7 8/17/8 6/18/5
f 8/17/8 7/19/7 5/20/6
f 8/21/8 5/22/6 6/23/5
f 5/7/6 7/12/7 2/8/2
f 4/10/4 2/8/2 7/12/7
