# Blender v3.1.2 OBJ File: ''
# www.blender.org
mtllib boneGood.mtl
o BoneA
v 0.099537 0.207663 -0.261874
v 0.110732 0.213292 -0.292922
v 0.069932 0.216820 -0.357049
v 0.032658 0.218568 -0.331296
v 0.011286 0.204098 -0.303138
v 0.028739 0.136436 -0.178888
v 0.073417 0.175923 -0.404709
v 0.123884 0.153530 -0.341731
v 0.008982 0.165556 -0.392638
v -0.023755 0.141690 -0.342246
v 0.006845 0.083043 -0.193760
v 0.121279 0.084973 -0.347000
v 0.092411 0.114769 -0.395689
v 0.050012 0.100621 -0.394148
v 0.021579 0.075838 -0.357280
v 0.032665 0.040789 -0.222293
v 0.111907 0.057175 -0.325296
v 0.066535 0.021021 -0.196962
v 0.036897 0.031941 -0.206016
v 0.098657 0.131958 -0.154689
v 0.193435 0.192439 -0.239532
v 0.195729 0.208041 -0.274402
v 0.176111 0.209451 -0.318524
v 0.238113 0.124705 -0.250912
v 0.119098 0.077081 -0.157763
v 0.246005 0.150193 -0.309964
v 0.206150 0.164164 -0.350918
v 0.111185 0.035934 -0.195411
v 0.204173 0.063809 -0.293675
v 0.207537 0.090412 -0.339202
v 0.175629 0.108558 -0.365095
v 0.097127 0.028305 -0.185426
v 0.061868 0.146430 -0.159793
v -0.121712 -0.078719 0.164955
v -0.109301 -0.035903 0.203053
v -0.091604 -0.128947 0.150894
v -0.105975 -0.132751 0.162491
v -0.059674 -0.137927 0.155576
v -0.031360 -0.132737 0.171420
v -0.009461 -0.084650 0.200965
v -0.027453 -0.137640 0.189359
v -0.039387 -0.040335 0.227271
v -0.114409 -0.060171 0.331916
v -0.124441 -0.079943 0.357003
v -0.080846 -0.117488 0.406794
v -0.045746 -0.092783 0.392189
v -0.024256 -0.079742 0.363429
v -0.075798 -0.176021 0.401286
v -0.124321 -0.155301 0.342658
v -0.011393 -0.169659 0.398791
v 0.021335 -0.145688 0.348444
v -0.116439 -0.211309 0.309656
v -0.086642 -0.218387 0.359903
v -0.042853 -0.221148 0.351235
v -0.013462 -0.208030 0.309451
v -0.102040 -0.210658 0.268495
v -0.206430 -0.067787 0.299948
v -0.208823 -0.082177 0.335328
v -0.187044 -0.109884 0.368368
v -0.240530 -0.128734 0.257097
v -0.248415 -0.154303 0.316115
v -0.208559 -0.168295 0.357059
v -0.196023 -0.196393 0.245681
v -0.200379 -0.210940 0.296290
v -0.169838 -0.212442 0.329197
v -0.074412 -0.024175 0.218440
vt 0.380286 0.275585
vt 0.380286 0.279574
vt 0.387596 0.284598
vt 0.390890 0.280282
vt 0.392050 0.275585
vt 0.385331 0.260741
vt 0.292741 0.228463
vt 0.284281 0.228463
vt 0.284281 0.237557
vt 0.292741 0.237557
vt 0.292741 0.220696
vt 0.284281 0.220696
vt 0.292741 0.206868
vt 0.284281 0.206868
vt 0.292741 0.186780
vt 0.284281 0.186780
vt 0.301033 0.237557
vt 0.301033 0.228463
vt 0.301033 0.220696
vt 0.301033 0.206868
vt 0.301033 0.186780
vt 0.380286 0.275585
vt 0.374453 0.284262
vt 0.380286 0.279574
vt 0.370750 0.280123
vt 0.369622 0.275585
vt 0.375976 0.260741
vt 0.380286 0.260741
vt 0.376054 0.260741
vt 0.375976 0.260741
vt 0.369622 0.275585
vt 0.370750 0.280123
vt 0.374453 0.284262
vt 0.292741 0.264769
vt 0.284281 0.264769
vt 0.284281 0.280421
vt 0.292741 0.280421
vt 0.292741 0.257468
vt 0.284281 0.257468
vt 0.292741 0.247669
vt 0.284281 0.247669
vt 0.301033 0.280421
vt 0.301033 0.264769
vt 0.301033 0.257468
vt 0.301033 0.247669
vt 0.385331 0.260741
vt 0.383200 0.260741
vt 0.392050 0.275585
vt 0.390890 0.280282
vt 0.387596 0.284598
vt 0.380286 0.260741
vt 0.322062 0.327706
vt 0.327285 0.328896
vt 0.327208 0.364259
vt 0.322584 0.365355
vt 0.332130 0.327486
vt 0.332947 0.328967
vt 0.332184 0.364159
vt 0.331642 0.365615
vt 0.335756 0.329282
vt 0.335019 0.364013
vt 0.302865 0.329305
vt 0.305701 0.329160
vt 0.304924 0.364352
vt 0.302115 0.364036
vt 0.306244 0.327704
vt 0.310678 0.329062
vt 0.310585 0.364426
vt 0.305740 0.365833
vt 0.315301 0.327969
vt 0.315809 0.365618
vt 0.380286 0.275585
vt 0.380286 0.279574
vt 0.387596 0.284598
vt 0.390890 0.280282
vt 0.392050 0.275585
vt 0.385331 0.260741
vt 0.292741 0.247669
vt 0.284281 0.247669
vt 0.284281 0.237557
vt 0.292741 0.237557
vt 0.292741 0.257468
vt 0.284281 0.257468
vt 0.292741 0.264769
vt 0.284281 0.264769
vt 0.292741 0.280461
vt 0.284281 0.280461
vt 0.301033 0.237557
vt 0.301033 0.247669
vt 0.301033 0.257468
vt 0.301033 0.264769
vt 0.301033 0.280461
vt 0.380286 0.275585
vt 0.374453 0.284262
vt 0.380286 0.279574
vt 0.370750 0.280123
vt 0.369622 0.275585
vt 0.375976 0.260741
vt 0.380286 0.260741
vt 0.375976 0.260741
vt 0.375976 0.260741
vt 0.369622 0.275585
vt 0.370750 0.280123
vt 0.374453 0.284262
vt 0.292741 0.206868
vt 0.284281 0.206868
vt 0.284281 0.186806
vt 0.292741 0.186806
vt 0.292741 0.220696
vt 0.284281 0.220696
vt 0.292741 0.228463
vt 0.284281 0.228463
vt 0.301033 0.186806
vt 0.301033 0.206868
vt 0.301033 0.220696
vt 0.301033 0.228463
vt 0.385331 0.260741
vt 0.383187 0.260741
vt 0.392050 0.275585
vt 0.390890 0.280282
vt 0.387596 0.284598
vt 0.380286 0.260741
vt 0.319274 0.365269
vt 0.318603 0.327992
vn -0.0705 0.9257 0.3716
vn 0.1059 0.9896 -0.0975
vn 0.2098 0.8853 -0.4149
vn -0.3688 0.9220 -0.1180
vn -0.6596 0.7248 0.1989
vn -0.6939 0.6764 0.2468
vn 0.2721 0.4007 -0.8749
vn 0.3866 0.3691 -0.8452
vn -0.6092 0.2687 -0.7461
vn -0.9797 0.0114 -0.2000
vn -0.9943 -0.0469 -0.0958
vn 0.2877 -0.4493 -0.8458
vn 0.4914 -0.2689 -0.8284
vn -0.1666 -0.5113 -0.8431
vn -0.5001 -0.7420 -0.4466
vn -0.6142 -0.7644 -0.1960
vn 0.0926 -0.8956 -0.4350
vn 0.0475 -0.9409 -0.3352
vn -0.5165 -0.7528 -0.4081
vn 0.4724 0.6039 0.6420
vn 0.4656 0.6611 0.5883
vn 0.4685 0.8741 0.1283
vn 0.1718 0.8573 -0.4854
vn 0.8935 -0.1237 0.4318
vn 0.8480 -0.1223 0.5157
vn 0.9548 0.1706 -0.2436
vn 0.4156 0.3679 -0.8318
vn 0.5984 -0.7970 0.0816
vn 0.5944 -0.8007 -0.0746
vn 0.6116 -0.5171 -0.5988
vn 0.0329 -0.0988 -0.9946
vn 0.3039 -0.9182 -0.2539
vn -0.0944 0.8963 0.4334
vn -0.8480 0.1628 -0.5044
vn -0.5886 0.8070 -0.0476
vn -0.1582 -0.8553 -0.4935
vn -0.4854 -0.5703 -0.6627
vn 0.1032 -0.8932 -0.4377
vn 0.6357 -0.7407 -0.2172
vn 0.9945 0.0383 0.0975
vn 0.7248 -0.5807 -0.3708
vn 0.5780 0.7376 0.3491
vn -0.0805 0.9117 0.4028
vn -0.2403 0.5756 0.7816
vn -0.3400 0.2232 0.9136
vn 0.2436 0.6021 0.7603
vn 0.5398 0.7323 0.4152
vn -0.3398 -0.3917 0.8551
vn -0.3435 -0.3456 0.8733
vn 0.5671 -0.2834 0.7734
vn 0.9787 0.0015 0.2054
vn -0.1701 -0.9491 0.2651
vn -0.3843 -0.8114 0.4404
vn 0.2716 -0.9236 0.2705
vn 0.6235 -0.7594 -0.1862
vn 0.0624 -0.9348 -0.3496
vn -0.5865 0.8094 0.0314
vn -0.5920 0.6283 0.5048
vn -0.2434 0.2054 0.9479
vn -0.8913 0.0981 -0.4426
vn -0.9533 -0.1884 0.2361
vn -0.4045 -0.3877 0.8283
vn -0.4722 -0.6870 -0.5523
vn -0.4978 -0.8671 0.0154
vn -0.0158 -0.8045 0.5937
vn -0.0568 0.9384 0.3408
usemtl Material_#219
s 1
f 1/1/1 2/2/2 3/3/3
f 1/1/1 3/3/3 4/4/4
f 1/1/1 4/4/4 5/5/5
f 1/1/1 5/5/5 6/6/6
f 7/7/7 3/8/3 2/9/2
f 2/9/2 8/10/8 7/7/7
f 9/11/9 4/12/4 3/8/3
f 3/8/3 7/7/7 9/11/9
f 10/13/10 5/14/5 4/12/4
f 4/12/4 9/11/9 10/13/10
f 11/15/11 6/16/6 5/14/5
f 5/14/5 10/13/10 11/15/11
f 8/10/8 12/17/12 13/18/13
f 13/18/13 7/7/7 8/10/8
f 7/7/7 13/18/13 14/19/14
f 14/19/14 9/11/9 7/7/7
f 9/11/9 14/19/14 15/20/15
f 15/20/15 10/13/10 9/11/9
f 10/13/10 15/20/15 16/21/16
f 16/21/16 11/15/11 10/13/10
f 17/22/17 13/23/13 12/24/12
f 17/22/17 14/25/14 13/23/13
f 17/22/17 15/26/15 14/25/14
f 17/22/17 16/27/16 15/26/15
f 18/28/18 19/29/19 16/27/16
f 16/27/16 17/22/17 18/28/18
f 1/1/1 20/30/20 21/31/21
f 1/1/1 21/31/21 22/32/22
f 1/1/1 22/32/22 23/33/23
f 1/1/1 23/33/23 2/2/2
f 24/34/24 21/35/21 20/36/20
f 20/36/20 25/37/25 24/34/24
f 26/38/26 22/39/22 21/35/21
f 21/35/21 24/34/24 26/38/26
f 27/40/27 23/41/23 22/39/22
f 22/39/22 26/38/26 27/40/27
f 8/10/8 2/9/2 23/41/23
f 23/41/23 27/40/27 8/10/8
f 25/37/25 28/42/28 29/43/29
f 29/43/29 24/34/24 25/37/25
f 24/34/24 29/43/29 30/44/30
f 30/44/30 26/38/26 24/34/24
f 26/38/26 30/44/30 31/45/31
f 31/45/31 27/40/27 26/38/26
f 27/40/27 31/45/31 12/17/12
f 12/17/12 8/10/8 27/40/27
f 17/22/17 28/46/28 32/47/32
f 32/47/32 18/28/18 17/22/17
f 17/22/17 29/48/29 28/46/28
f 17/22/17 30/49/30 29/48/29
f 17/22/17 31/50/31 30/49/30
f 17/22/17 12/24/12 31/50/31
f 1/1/1 6/6/6 33/51/33
f 6/52/6 11/53/11 34/54/34
f 34/54/34 35/55/35 6/52/6
f 11/53/11 16/56/16 19/57/19
f 19/57/19 36/58/36 37/59/37
f 19/57/19 37/59/37 34/54/34
f 11/53/11 19/57/19 34/54/34
f 19/57/19 18/60/18 38/61/38
f 38/61/38 36/58/36 19/57/19
f 18/62/18 32/63/32 39/64/39
f 39/64/39 38/65/38 18/62/18
f 28/66/28 25/67/25 40/68/40
f 40/68/40 41/69/41 39/64/39
f 28/66/28 40/68/40 39/64/39
f 32/63/32 28/66/28 39/64/39
f 25/67/25 20/70/20 42/71/42
f 42/71/42 40/68/40 25/67/25
f 20/30/20 1/1/1 33/51/33
f 43/72/43 44/73/44 45/74/45
f 43/72/43 45/74/45 46/75/46
f 43/72/43 46/75/46 47/76/47
f 43/72/43 47/76/47 42/77/42
f 48/78/48 45/79/45 44/80/44
f 44/80/44 49/81/49 48/78/48
f 50/82/50 46/83/46 45/79/45
f 45/79/45 48/78/48 50/82/50
f 51/84/51 47/85/47 46/83/46
f 46/83/46 50/82/50 51/84/51
f 40/86/40 42/87/42 47/85/47
f 47/85/47 51/84/51 40/86/40
f 49/81/49 52/88/52 53/89/53
f 53/89/53 48/78/48 49/81/49
f 48/78/48 53/89/53 54/90/54
f 54/90/54 50/82/50 48/78/48
f 50/82/50 54/90/54 55/91/55
f 55/91/55 51/84/51 50/82/50
f 51/84/51 55/91/55 41/92/41
f 41/92/41 40/86/40 51/84/51
f 56/93/56 53/94/53 52/95/52
f 56/93/56 54/96/54 53/94/53
f 56/93/56 55/97/55 54/96/54
f 56/93/56 41/98/41 55/97/55
f 38/99/38 39/100/39 41/98/41
f 41/98/41 56/93/56 38/99/38
f 43/72/43 35/101/35 57/102/57
f 43/72/43 57/102/57 58/103/58
f 43/72/43 58/103/58 59/104/59
f 43/72/43 59/104/59 44/73/44
f 60/105/60 57/106/57 35/107/35
f 35/107/35 34/108/34 60/105/60
f 61/109/61 58/110/58 57/106/57
f 57/106/57 60/105/60 61/109/61
f 62/111/62 59/112/59 58/110/58
f 58/110/58 61/109/61 62/111/62
f 49/81/49 44/80/44 59/112/59
f 59/112/59 62/111/62 49/81/49
f 34/108/34 37/113/37 63/114/63
f 63/114/63 60/105/60 34/108/34
f 60/105/60 63/114/63 64/115/64
f 64/115/64 61/109/61 60/105/60
f 61/109/61 64/115/64 65/116/65
f 65/116/65 62/111/62 61/109/61
f 62/111/62 65/116/65 52/88/52
f 52/88/52 49/81/49 62/111/62
f 56/93/56 37/117/37 36/118/36
f 36/118/36 38/99/38 56/93/56
f 56/93/56 63/119/63 37/117/37
f 56/93/56 64/120/64 63/119/63
f 56/93/56 65/121/65 64/120/64
f 56/93/56 52/95/52 65/121/65
f 35/101/35 43/72/43 66/122/66
f 66/122/66 43/72/43 42/77/42
f 35/55/35 66/123/66 33/124/33
f 33/124/33 6/52/6 35/55/35
f 20/70/20 33/124/33 66/123/66
f 66/123/66 42/71/42 20/70/20
