# Blender v3.1.2 OBJ File: ''
# www.blender.org
mtllib h1.mtl
o Heart
v 0.507020 0.416545 0.536838
v 0.349443 0.440166 0.533525
v 0.374603 0.181880 0.422526
v 0.507020 0.128250 0.422526
v 0.639438 0.181880 0.422526
v 0.664597 0.440166 0.533525
v 0.507020 0.664202 0.536838
v 0.349443 0.692117 0.533525
v 0.664597 0.692117 0.533525
v 0.507020 0.416545 0.077807
v 0.349443 0.440166 0.081121
v 0.349443 0.692117 0.081121
v 0.507020 0.664202 0.077807
v 0.664597 0.692117 0.081121
v 0.664597 0.440166 0.081121
v 0.507020 0.128250 0.192119
v 0.374603 0.181880 0.192119
v 0.639438 0.181880 0.192119
v 0.242185 0.271261 0.422526
v 0.191866 0.474523 0.503168
v 0.191866 0.728621 0.503168
v 0.034289 0.739358 0.422526
v 0.048471 0.520207 0.422526
v 0.374603 0.942189 0.422526
v 0.214377 0.952657 0.422526
v 0.214377 0.952657 0.192119
v 0.374603 0.942189 0.192119
v 0.191866 0.728621 0.111477
v 0.191866 0.474523 0.111477
v 0.048471 0.520207 0.192119
v 0.034289 0.739358 0.192119
v 0.242185 0.271261 0.192119
v 0.822174 0.474523 0.503168
v 0.771856 0.271261 0.422526
v 0.822174 0.728621 0.503168
v 0.965569 0.520207 0.422526
v 0.979751 0.739358 0.422526
v 0.799663 0.952657 0.422526
v 0.639438 0.942189 0.422526
v 0.822174 0.728621 0.111477
v 0.639438 0.942189 0.192119
v 0.799663 0.952657 0.192119
v 0.822174 0.474523 0.111477
v 0.979751 0.739358 0.192119
v 0.965569 0.520207 0.192119
v 0.771856 0.271261 0.192119
v 0.011292 0.516476 0.307323
v 0.109767 0.406327 0.192119
v 0.077558 0.393363 0.307323
v 0.109767 0.406327 0.422526
v -0.004040 0.753396 0.307323
v 0.077558 0.906571 0.307323
v 0.109767 0.881045 0.192119
v 0.109767 0.881045 0.422526
v 0.936483 0.393363 0.307323
v 0.904273 0.406327 0.192119
v 1.002749 0.516476 0.307323
v 0.904273 0.406327 0.422526
v 1.018081 0.753396 0.307323
v 0.904273 0.881045 0.192119
v 0.936483 0.906571 0.307323
v 0.904273 0.881045 0.422526
v 0.363866 0.150717 0.307323
v 0.507020 0.092739 0.307323
v 0.650175 0.150717 0.307323
v 0.507020 0.846446 0.307323
v 0.507020 0.825429 0.135670
v 0.363866 0.975285 0.307323
v 0.507020 0.825429 0.478976
v 0.650175 0.975285 0.307323
v 0.220712 0.247346 0.307323
v 0.190650 0.988169 0.307323
v 0.793329 0.247346 0.307323
v 0.823391 0.988169 0.307323
vt 0.666667 0.500000
vt 0.750000 0.444444
vt 0.750000 0.500000
vt 0.750000 0.555556
vt 0.583333 0.500000
vt 0.666667 0.444444
vt 0.666667 0.555556
vt 0.083333 0.444444
vt 0.166667 0.500000
vt 0.083333 0.500000
vt 0.083333 0.555556
vt 0.000000 0.444444
vt 0.000000 0.500000
vt 0.000000 0.555556
vt 0.750000 0.388889
vt 0.666667 0.388889
vt 0.583333 0.388889
vt 0.666667 0.333333
vt 0.583333 0.444444
vt 0.500000 0.444444
vt 0.500000 0.388889
vt 0.250000 0.444444
vt 0.166667 0.388889
vt 0.250000 0.388889
vt 0.083333 0.333333
vt 0.083333 0.388889
vt 0.166667 0.444444
vt 0.000000 0.388889
vt 0.750000 0.611111
vt 0.666667 0.611111
vt 0.583333 0.555556
vt 0.583333 0.611111
vt 0.666667 0.666667
vt 0.500000 0.555556
vt 0.500000 0.611111
vt 0.166667 0.611111
vt 0.250000 0.555556
vt 0.250000 0.611111
vt 0.083333 0.611111
vt 0.166667 0.555556
vt 0.083333 0.666667
vt 0.000000 0.611111
vt 0.250000 0.111111
vt 0.375000 0.000000
vt 0.375000 0.111111
vt 0.500000 0.111111
vt 0.250000 0.222222
vt 0.375000 0.222222
vt 0.500000 0.222222
vt 0.250000 0.333333
vt 0.375000 0.333333
vt 0.500000 0.333333
vt 0.375000 1.000000
vt 0.250000 0.888889
vt 0.375000 0.888889
vt 0.500000 0.888889
vt 0.250000 0.777778
vt 0.375000 0.777778
vt 0.500000 0.777778
vt 0.250000 0.666667
vt 0.375000 0.666667
vt 0.500000 0.666667
vt 0.875000 0.444444
vt 1.000000 0.500000
vt 0.875000 0.500000
vt 0.875000 0.555556
vt 0.375000 0.500000
vt 0.375000 0.444444
vt 0.375000 0.555556
vt 1.000000 0.333333
vt 0.875000 0.388889
vt 0.875000 0.333333
vt 0.750000 0.333333
vt 1.000000 0.444444
vt 0.375000 0.388889
vt 1.000000 0.555556
vt 0.875000 0.611111
vt 1.000000 0.666667
vt 0.875000 0.666667
vt 0.750000 0.666667
vt 0.375000 0.611111
vt 0.000000 0.333333
vt 0.166667 0.333333
vt 0.583333 0.333333
vt 0.250000 0.500000
vt 0.000000 0.666667
vt 0.166667 0.666667
vt 0.500000 0.500000
vt 0.583333 0.666667
vt 0.250000 0.000000
vt 0.500000 0.000000
vt 0.250000 1.000000
vt 0.500000 1.000000
vt 1.000000 0.388889
vt 1.000000 0.611111
vn -0.0601 -0.3746 0.9252
vn -0.0905 -0.3592 0.9289
vn -0.1105 -0.3497 0.9303
vn 0.1639 -0.3557 0.9201
vn 0.1338 -0.3719 0.9186
vn 0.1819 -0.3458 0.9205
vn -0.0210 0.0000 0.9998
vn 0.0210 0.0000 0.9998
vn -0.0210 0.0000 -0.9998
vn 0.0210 0.0000 -0.9998
vn -0.1639 -0.3557 -0.9201
vn -0.1338 -0.3719 -0.9186
vn -0.1819 -0.3458 -0.9205
vn 0.0601 -0.3746 -0.9252
vn 0.0905 -0.3592 -0.9289
vn 0.1105 -0.3497 -0.9303
vn -0.2811 -0.4115 0.8670
vn -0.2764 -0.4145 0.8670
vn -0.2718 -0.4174 0.8671
vn -0.4518 -0.0032 0.8921
vn -0.4588 0.0030 0.8885
vn -0.4717 0.0141 0.8817
vn -0.1892 -0.0000 0.9819
vn -0.1139 0.3551 0.9279
vn -0.0845 0.3341 0.9388
vn -0.0432 0.3069 0.9508
vn 0.0385 0.3239 -0.9453
vn 0.0091 0.3464 -0.9380
vn 0.0749 0.2955 -0.9524
vn -0.4935 0.0030 -0.8698
vn -0.4866 -0.0032 -0.8736
vn -0.5056 0.0140 -0.8627
vn -0.1892 0.0000 -0.9819
vn -0.2556 -0.4123 -0.8744
vn -0.2603 -0.4094 -0.8745
vn -0.2511 -0.4152 -0.8744
vn 0.2556 -0.4123 0.8744
vn 0.2603 -0.4094 0.8745
vn 0.2511 -0.4152 0.8744
vn 0.1892 -0.0000 0.9819
vn 0.4935 0.0030 0.8698
vn 0.4866 -0.0032 0.8736
vn 0.5056 0.0140 0.8627
vn -0.0385 0.3239 0.9453
vn -0.0091 0.3464 0.9380
vn -0.0749 0.2955 0.9524
vn 0.1139 0.3551 -0.9279
vn 0.0845 0.3341 -0.9388
vn 0.0432 0.3069 -0.9508
vn 0.1892 0.0000 -0.9819
vn 0.4518 -0.0032 -0.8921
vn 0.4588 0.0030 -0.8885
vn 0.4717 0.0141 -0.8817
vn 0.2811 -0.4115 -0.8670
vn 0.2764 -0.4145 -0.8670
vn 0.2718 -0.4174 -0.8671
vn -0.8435 -0.4540 -0.2869
vn -0.8435 -0.4540 0.2869
vn -0.9493 -0.0614 -0.3084
vn -0.9493 -0.0614 0.3084
vn -0.8328 0.4436 -0.3311
vn -0.8328 0.4436 0.3311
vn 0.8435 -0.4540 -0.2869
vn 0.8435 -0.4540 0.2869
vn 0.9493 -0.0614 -0.3084
vn 0.9493 -0.0614 0.3084
vn 0.8328 0.4436 -0.3311
vn 0.8328 0.4436 0.3311
vn -0.3609 -0.8912 -0.2747
vn -0.3609 -0.8912 0.2747
vn 0.3609 -0.8912 -0.2747
vn 0.3609 -0.8912 0.2747
vn 0.6649 0.7418 -0.0875
vn 0.6698 0.7360 -0.0979
vn 0.6804 0.7225 -0.1228
vn 0.6648 0.7304 0.1571
vn 0.6602 0.7366 0.1466
vn 0.6745 0.7159 0.1803
vn -0.6647 0.7304 -0.1571
vn -0.6602 0.7366 -0.1466
vn -0.6745 0.7159 -0.1803
vn -0.6649 0.7418 0.0875
vn -0.6698 0.7360 0.0979
vn -0.6804 0.7225 0.1228
vn -0.6879 -0.6744 -0.2682
vn -0.6879 -0.6744 0.2682
vn -0.5393 -0.7989 -0.2664
vn -0.5393 -0.7989 0.2664
vn -0.5478 0.7607 -0.3482
vn -0.5491 0.7603 -0.3469
vn -0.5600 0.7571 -0.3365
vn -0.5538 0.7669 0.3243
vn -0.5526 0.7673 0.3255
vn -0.5647 0.7635 0.3135
vn 0.0705 0.9608 -0.2681
vn 0.0723 0.9601 -0.2703
vn 0.0755 0.9587 -0.2742
vn 0.0720 0.9569 0.2814
vn 0.0703 0.9576 0.2793
vn 0.0752 0.9555 0.2853
vn 0.5393 -0.7989 -0.2664
vn 0.5393 -0.7989 0.2664
vn 0.6879 -0.6744 -0.2682
vn 0.6879 -0.6744 0.2682
vn -0.0720 0.9569 -0.2814
vn -0.0703 0.9576 -0.2793
vn -0.0752 0.9555 -0.2853
vn -0.0705 0.9608 0.2681
vn -0.0723 0.9601 0.2703
vn -0.0755 0.9587 0.2742
vn 0.5538 0.7669 -0.3243
vn 0.5526 0.7673 -0.3255
vn 0.5647 0.7635 -0.3135
vn 0.5478 0.7607 0.3482
vn 0.5491 0.7603 0.3469
vn 0.5600 0.7571 0.3365
vn -0.4314 -0.4229 -0.7969
vn -0.5376 -0.2894 -0.7920
vn -0.4310 0.2296 -0.8727
vn -0.2396 0.3500 -0.9056
vn -0.4310 0.2296 0.8727
vn -0.2396 0.3500 0.9056
vn -0.5376 -0.2894 0.7920
vn -0.4314 -0.4229 0.7969
vn 0.0293 0.4080 -0.9125
vn -0.0400 0.3375 -0.9405
vn 0.5376 -0.2894 -0.7920
vn 0.4314 -0.4229 -0.7969
vn 0.0400 0.3375 -0.9405
vn -0.0293 0.4080 -0.9125
vn 0.4310 0.2296 -0.8727
vn 0.2396 0.3500 -0.9056
vn -0.0400 0.3375 0.9405
vn 0.0293 0.4080 0.9125
vn 0.4310 0.2296 0.8727
vn 0.2396 0.3500 0.9056
vn -0.0293 0.4080 0.9125
vn 0.0400 0.3375 0.9405
vn 0.4314 -0.4229 0.7969
vn 0.5376 -0.2894 0.7920
vn -0.0418 -0.3844 0.9222
vn 0.1139 -0.3824 0.9169
vn -0.1139 -0.3824 -0.9169
vn 0.0418 -0.3844 -0.9222
vn -0.2853 -0.4088 0.8669
vn -0.4383 -0.0155 0.8987
vn -0.1446 0.3796 0.9138
vn -0.0267 0.3731 -0.9274
vn -0.4729 -0.0155 -0.8810
vn -0.2646 -0.4066 -0.8744
vn 0.2646 -0.4066 0.8744
vn 0.4729 -0.0155 0.8810
vn 0.0267 0.3731 0.9274
vn 0.1446 0.3796 -0.9138
vn 0.4383 -0.0155 -0.8987
vn 0.2853 -0.4088 -0.8669
vn 0.6543 0.7533 -0.0670
vn 0.6505 0.7491 0.1251
vn -0.6505 0.7491 -0.1251
vn -0.6543 0.7533 0.0670
vn -0.5362 0.7637 -0.3594
vn -0.5412 0.7706 0.3366
vn 0.0670 0.9622 -0.2639
vn 0.0668 0.9591 0.2751
vn -0.0668 0.9591 -0.2751
vn -0.0670 0.9622 0.2639
vn 0.5412 0.7706 -0.3366
vn 0.5363 0.7637 0.3594
usemtl Default
s 1
f 1/1/1 3/2/2 4/3/3
f 5/4/4 1/1/5 4/3/6
f 7/5/7 2/6/7 1/1/7
f 6/7/8 7/5/8 1/1/8
f 11/8/9 13/9/9 10/10/9
f 13/9/10 15/11/10 10/10/10
f 17/12/11 10/10/12 16/13/13
f 10/10/14 18/14/15 16/13/16
f 19/15/17 2/6/18 20/16/19
f 21/17/20 23/18/21 20/16/22
f 20/16/23 8/19/23 21/17/23
f 21/17/24 24/20/25 25/21/26
f 27/22/27 28/23/28 26/24/29
f 30/25/30 28/23/31 29/26/32
f 12/27/33 29/26/33 28/23/33
f 11/8/34 32/28/35 29/26/36
f 6/7/37 34/29/38 33/30/39
f 9/31/40 33/30/40 35/32/40
f 36/33/41 35/32/42 33/30/43
f 39/34/44 35/32/45 38/35/46
f 40/36/47 41/37/48 42/38/49
f 43/39/50 14/40/50 40/36/50
f 40/36/51 45/41/52 43/39/53
f 46/42/54 15/11/55 43/39/56
f 30/43/57 49/44/57 47/45/57
f 49/44/58 23/46/58 47/45/58
f 31/47/59 47/45/59 51/48/59
f 47/45/60 22/49/60 51/48/60
f 53/50/61 51/48/61 52/51/61
f 51/48/62 54/52/62 52/51/62
f 55/53/63 45/54/63 57/55/63
f 36/56/64 55/53/64 57/55/64
f 57/55/65 44/57/65 59/58/65
f 37/59/66 57/55/66 59/58/66
f 59/58/67 60/60/67 61/61/67
f 62/62/68 59/58/68 61/61/68
f 63/63/69 16/64/69 64/65/69
f 4/3/70 63/63/70 64/65/70
f 16/64/71 65/66/71 64/65/71
f 65/66/72 4/3/72 64/65/72
f 66/67/73 27/22/74 68/68/75
f 24/20/76 66/67/77 68/68/78
f 41/37/79 66/67/80 70/69/81
f 66/67/82 39/34/83 70/69/84
f 48/70/85 71/71/85 49/72/85
f 71/71/86 50/73/86 49/72/86
f 71/71/87 17/74/87 63/63/87
f 3/2/88 71/71/88 63/63/88
f 72/75/89 53/50/90 52/51/91
f 54/52/92 72/75/93 52/51/94
f 68/68/95 26/24/96 72/75/97
f 25/21/98 68/68/99 72/75/100
f 18/76/101 73/77/101 65/66/101
f 73/77/102 5/4/102 65/66/102
f 73/77/103 56/78/103 55/79/103
f 58/80/104 73/77/104 55/79/104
f 42/38/105 70/69/106 74/81/107
f 70/69/108 38/35/109 74/81/110
f 60/60/111 74/81/112 61/61/113
f 74/81/114 62/62/115 61/61/116
f 32/28/117 48/82/117 29/26/117
f 30/25/118 29/26/118 48/82/118
f 31/83/119 53/50/119 28/23/119
f 26/24/120 28/23/120 53/50/120
f 22/84/121 21/17/121 54/52/121
f 25/21/122 54/52/122 21/17/122
f 23/18/123 50/73/123 20/16/123
f 19/15/124 20/16/124 50/73/124
f 41/37/125 14/40/125 67/85/125
f 13/9/126 67/85/126 14/40/126
f 45/41/127 56/86/127 43/39/127
f 46/42/128 43/39/128 56/86/128
f 13/9/129 12/27/129 67/85/129
f 27/22/130 67/85/130 12/27/130
f 44/87/131 40/36/131 60/60/131
f 42/38/132 60/60/132 40/36/132
f 7/5/133 9/31/133 69/88/133
f 39/34/134 69/88/134 9/31/134
f 37/89/135 62/62/135 35/32/135
f 38/35/136 35/32/136 62/62/136
f 24/20/137 8/19/137 69/88/137
f 7/5/138 69/88/138 8/19/138
f 34/29/139 58/80/139 33/30/139
f 36/33/140 33/30/140 58/80/140
f 1/1/1 2/6/141 3/2/2
f 5/4/4 6/7/142 1/1/5
f 7/5/7 8/19/7 2/6/7
f 6/7/8 9/31/8 7/5/8
f 11/8/9 12/27/9 13/9/9
f 13/9/10 14/40/10 15/11/10
f 17/12/11 11/8/143 10/10/12
f 10/10/14 15/11/144 18/14/15
f 19/15/17 3/2/145 2/6/18
f 21/17/20 22/84/146 23/18/21
f 20/16/23 2/6/23 8/19/23
f 21/17/24 8/19/147 24/20/25
f 27/22/27 12/27/148 28/23/28
f 30/25/30 31/83/149 28/23/31
f 12/27/33 11/8/33 29/26/33
f 11/8/34 17/12/150 32/28/35
f 6/7/37 5/4/151 34/29/38
f 9/31/40 6/7/40 33/30/40
f 36/33/41 37/89/152 35/32/42
f 39/34/44 9/31/153 35/32/45
f 40/36/47 14/40/154 41/37/48
f 43/39/50 15/11/50 14/40/50
f 40/36/51 44/87/155 45/41/52
f 46/42/54 18/14/156 15/11/55
f 30/43/57 48/90/57 49/44/57
f 49/44/58 50/91/58 23/46/58
f 31/47/59 30/43/59 47/45/59
f 47/45/60 23/46/60 22/49/60
f 53/50/61 31/47/61 51/48/61
f 51/48/62 22/49/62 54/52/62
f 55/53/63 56/92/63 45/54/63
f 36/56/64 58/93/64 55/53/64
f 57/55/65 45/54/65 44/57/65
f 37/59/66 36/56/66 57/55/66
f 59/58/67 44/57/67 60/60/67
f 62/62/68 37/59/68 59/58/68
f 63/63/69 17/74/69 16/64/69
f 4/3/70 3/2/70 63/63/70
f 16/64/71 18/76/71 65/66/71
f 65/66/72 5/4/72 4/3/72
f 66/67/73 67/85/157 27/22/74
f 24/20/76 69/88/158 66/67/77
f 41/37/79 67/85/159 66/67/80
f 66/67/82 69/88/160 39/34/83
f 48/70/85 32/94/85 71/71/85
f 71/71/86 19/15/86 50/73/86
f 71/71/87 32/94/87 17/74/87
f 3/2/88 19/15/88 71/71/88
f 72/75/89 26/24/161 53/50/90
f 54/52/92 25/21/162 72/75/93
f 68/68/95 27/22/163 26/24/96
f 25/21/98 24/20/164 68/68/99
f 18/76/101 46/95/101 73/77/101
f 73/77/102 34/29/102 5/4/102
f 73/77/103 46/95/103 56/78/103
f 58/80/104 34/29/104 73/77/104
f 42/38/105 41/37/165 70/69/106
f 70/69/108 39/34/166 38/35/109
f 60/60/111 42/38/167 74/81/112
f 74/81/114 38/35/168 62/62/115
